# xmcd
#
# Track frame offsets: 
#        150
#        16432
#        28231
#        43464
#        50968
#        61646
#        71567
#        87285
#        102992
#        115461
#        130644
#        145177
#        158309
#        170887
#        181732
#        205960
#        221672
#        238365
#
# Disc length: 3361 seconds
#
# Revision: 0
# Processed by: cddbd v1.5.2PL0 Copyright (c) Steve Scherf et al.
# Submitted via: ExactAudioCopy v0.99pb5
#
DISCID=0e0d1f12
DTITLE=Michael Heck - Memphis Memories
DYEAR=2010
DGENRE=Country
TTITLE0=Memphis Memories
TTITLE1=Only The Lonely
TTITLE2=Willkommen in Flamingo Bay
TTITLE3=All shock Up
TTITLE4=Love Me
TTITLE5=Blue Suede Shoes
TTITLE6=Blue Bayou
TTITLE7=Rocky Mountain Lady
TTITLE8=In The Ghetto
TTITLE9=Eagles In The Skyways
TTITLE10=Honky Tonk Engel
TTITLE11=What Now My Love
TTITLE12=Let Me Be There
TTITLE13=Heartbreak Hotel
TTITLE14=A Little Less Conversation
TTITLE15=Die HR4 Hessenhymne "Im Land des Loewen"
TTITLE16=Easy Rider U.S.A. (Jubilaeumsversion)
TTITLE17=Komm wir machen das Leben zur Party
EXTD=
EXTT0=
EXTT1=
EXTT2=
EXTT3=
EXTT4=
EXTT5=
EXTT6=
EXTT7=
EXTT8=
EXTT9=
EXTT10=
EXTT11=
EXTT12=
EXTT13=
EXTT14=
EXTT15=
EXTT16=
EXTT17=
PLAYORDER=
